<svg width="131" height="97" viewBox="0 0 131 97" fill="none" xmlns="http://www.w3.org/2000/svg">
<path d="M44.0459 0.636719C52.2578 0.636786 59.6519 2.51495 66.2275 6.27246C72.8336 9.99973 78.0451 15.4247 81.8633 22.5459C85.1899 28.7016 87.0773 35.9892 87.5283 44.4092H87.5439C87.6055 46.902 88.1133 49.0412 89.0674 50.8262C90.0522 52.5804 91.3913 53.9346 93.084 54.8887C94.8074 55.8119 96.8389 56.2734 99.1777 56.2734C101.64 56.2734 103.718 55.7505 105.41 54.7041C107.134 53.6269 108.442 52.0571 109.334 49.9951C110.226 47.9331 110.673 45.394 110.673 42.3779V0.700195H130.431V42.3779C130.431 48.4716 129.061 53.7654 126.322 58.2588C123.614 62.752 119.844 66.2142 115.012 68.6455C110.18 71.0768 104.563 72.2929 98.1621 72.293C93.0023 72.293 88.2731 71.4681 83.9727 69.8252C83.3487 71.4005 82.6467 72.9136 81.8633 74.3633C78.0452 81.4844 72.8335 86.9241 66.2275 90.6816C59.6519 94.4088 52.2578 96.2724 44.0459 96.2725C35.7732 96.2725 28.3482 94.3943 21.7725 90.6367C15.1967 86.8792 9.99981 81.4395 6.18164 74.3184C2.36346 67.1971 0.454102 58.5753 0.454102 48.4541C0.454157 38.303 2.36366 29.6669 6.18164 22.5459C9.99981 15.4247 15.1967 9.99973 21.7725 6.27246C28.3482 2.51488 35.7732 0.636719 44.0459 0.636719ZM44.0459 18.0459C39.2883 18.0459 35.1363 19.2126 31.5908 21.5459C28.0455 23.8792 25.288 27.3033 23.3184 31.8184C21.379 36.3334 20.4092 41.8786 20.4092 48.4541C20.4092 55.0299 21.379 60.5757 23.3184 65.0908C25.288 69.6059 28.0455 73.03 31.5908 75.3633C35.1363 77.6966 39.2883 78.8633 44.0459 78.8633C48.8033 78.8632 52.9547 77.6965 56.5 75.3633C60.0454 73.03 62.7882 69.6059 64.7275 65.0908C66.6972 60.5757 67.6816 55.0298 67.6816 48.4541C67.6816 41.8787 66.6971 36.3334 64.7275 31.8184C62.7882 27.3033 60.0454 23.8792 56.5 21.5459C52.9547 19.2126 48.8033 18.046 44.0459 18.0459Z" fill="white"/>
</svg>
